<?xml version="1.0" encoding="utf-8"?>
<?xml-stylesheet type="text/xsl" href="rss1.xsl"?>
<rss version="2.0" xmlns:atom="http://www.w3.org/2005/Atom" xmlns:content="http://purl.org/rss/1.0/modules/content/" xmlns:dc="http://purl.org/dc/elements/1.1/" xmlns:media="http://search.yahoo.com/mrss/">
<channel>
 <title>Getty</title>
 <link>http://www.gettyimg.com/</link>
 <atom:link href="http://www.gettyimg.com/" rel="self" type="application/rss+xml" />

 
                <item>
                <title><![CDATA[【HD Live Performances】UHDTV 4K - Demi Lovato: Live @ The Town 2023 2160p(4K).GLBO.WEB-DL.DDP5.1.ATMOS.HEVC-JL92 [CHAPTER MENU]]]></title>
                <link><![CDATA[https://sharemania.us/threads/demi-lovato-live-the-town-2023-2160p-4k-glbo-web-dl-ddp5-1-atmos-hevc-jl92-chapter-menu.248779/]]></link>
                <description><![CDATA[<article>
<blockquote class="messageText SelectQuoteContainer ugc baseHtml">
<img src="https://i.postimg.cc/1XfqjgZr/Banner-The-Town.jpg" class="bbCodeImage LbImage" alt="[​IMG]" data-url="https://i.postimg.cc/1XfqjgZr/Banner-The-Town.jpg" style=""><br>
<div style="text-align: center"><img src="https://i.postimg.cc/1X0Z87Zj/Cap-tulos-Demi-1080p.jpg" class="bbCodeImage LbImage" alt="[​IMG]" data-url="https://i.postimg.cc/1X0Z87Zj/Cap-tulos-Demi-1080p.jpg" style=""><br>
<a href="https://postimg.cc/DmzY7xfs" target="_blank" class="externalLink" rel="nofollow"><img src="https://i.postimg.cc/DmzY7xfs/vlcsnap-2024-07-04-18h36m07s720.png" class="bbCodeImage LbImage" alt="[​IMG]" data-url="https://i.postimg.cc/DmzY7xfs/vlcsnap-2024-07-04-18h36m07s720.png"></a> <a href="https://postimg.cc/LY9QYTzc" target="_blank" class="externalLink" rel="nofollow"><img src="https://i.postimg.cc/LY9QYTzc/vlcsnap-2024-07-04-18h37m51s350.png" class="bbCodeImage LbImage" alt="[​IMG]" data-url="https://i.postimg.cc/LY9QYTzc/vlcsnap-2024-07-04-18h37m51s350.png"></a> <a href="https://postimg.cc/RWwgg8Gr" target="_blank" class="externalLink" rel="nofollow"><img src="https://i.postimg.cc/RWwgg8Gr/vlcsnap-2024-07-04-18h38m48s183.png" class="bbCodeImage LbImage" alt="[​IMG]" data-url="https://i.postimg.cc/RWwgg8Gr/vlcsnap-2024-07-04-18h38m48s183.png"></a> <a href="https://postimg.cc/vD0Qq2TN" target="_blank" class="externalLink" rel="nofollow"><img src="https://i.postimg.cc/vD0Qq2TN/vlcsnap-2024-07-04-19h08m16s456.png" class="bbCodeImage LbImage" alt="[​IMG]" data-url="https://i.postimg.cc/vD0Qq2TN/vlcsnap-2024-07-04-19h08m16s456.png"></a>​</div>
<div class="ToggleTriggerAnchor bbCodeSpoilerContainer">
<button type="button" class="button bbCodeSpoilerButton ToggleTrigger Tooltip JsOnly" data-target="> .SpoilerTarget"><span>Spoiler: <span class="SpoilerTitle">MediaInfo</span></span></button>
<div class="SpoilerTarget bbCodeSpoilerText">
<div class="bbCodeBlock bbCodeCode">
<div class="type">Code:</div>
<pre>General
Unique ID                   : 275087287602563486959046776333262362352 (0xCEF3E26B683F5C67F375457EDE5B96F0)
Complete name               : The.Town.2023.Demi.Lovato.2160p.GLBO.WEB-DL.DDP5.1.ATMOS.HEVC-JL92.mkv
Format                      : Matroska
Format version              : Version 4
File size                   : 8.89 GiB
Duration                    : 1 h 8 min
Overall bit rate            : 18.5 Mb/s
Frame rate                  : 30.000 FPS
Writing application         : Lavf58.76.100
Writing library             : Lavf58.76.100
ErrorDetectionType          : Per level 1

Video
ID                          : 1
Format                      : HEVC
Format/Info                 : High Efficiency Video Coding
Format profile              : Main 10@L5.1@High
Codec ID                    : V_MPEGH/ISO/HEVC
Duration                    : 1 h 8 min
Bit rate                    : 17.6 Mb/s
Width                       : 3 840 pixels
Height                      : 2 160 pixels
Display aspect ratio        : 16:9
Frame rate mode             : Constant
Frame rate                  : 30.000 FPS
Standard                    : NTSC
Color space                 : YUV
Chroma subsampling          : 4:2:0
Bit depth                   : 10 bits
Bits/(Pixel*Frame)          : 0.071
Time code of first frame    : 23:50:20:09
Stream size                 : 8.50 GiB (96%)
Default                     : Yes
Forced                      : No
Color range                 : Limited
Color primaries             : BT.709
Transfer characteristics    : BT.709
Matrix coefficients         : BT.709

Audio
ID                          : 2
Format                      : E-AC-3 JOC
Format/Info                 : Enhanced AC-3 with Joint Object Coding
Commercial name             : Dolby Digital Plus with Dolby Atmos
Codec ID                    : A_EAC3
Duration                    : 1 h 8 min
Bit rate mode               : Constant
Bit rate                    : 448 kb/s
Channel(s)                  : 6 channels
Channel layout              : L R C LFE Ls Rs
Sampling rate               : 48.0 kHz
Frame rate                  : 31.250 FPS (1536 SPF)
Compression mode            : Lossy
Delay relative to video     : 32 ms
Stream size                 : 221 MiB (2%)
Language                    : English
Service kind                : Complete Main
Default                     : Yes
Forced                      : No
Complexity index            : 12
Number of dynamic objects   : 0
Bed channel count           : 12 channels
Bed channel configuration   : L R C LFE Ls Rs Lb Rb Tfl Tfr Tbl Tbr

Menu
00:00:37.498                : Confident
00:04:56.915                : Holy Fvck
00:07:40.213                : Freak
00:10:56.202                : Eat Me
00:14:24.152                : Swine
00:17:16.503                : Substance
00:21:06.219                : La La Land
00:22:40.451                : Don’t Forget
00:26:29.502                : Give Your Heart a Break
00:30:01.410                : Tell Me You Love Me
00:34:48.544                : Neon Lights
00:39:42.532                : Sorry Not Sorry
00:43:38.885                : Penhasco2 (feat. Luísa Sonza)
00:47:49.404                : Skyscraper
00:51:46.754                : 29
00:55:14.107                : Skin Of My Teeth
00:59:13.532                : Heart Attack
01:04:06.853                : Cool for the Summer
</pre>
</div></div>
</div>
<div class="bbCodeBlock bbCodeVfcHH HiddenContent">
<div class="attribution type">Hidden Content:</div>
<blockquote>You must reply before you can see the hidden data contained here.</blockquote>
</div>
<div class="messageTextEndMarker">&nbsp;</div>
</blockquote>
</article>]]></description>
                <author><![CDATA[AlexVicente]]></author>
                </item>

                
                <item>
                <title><![CDATA[【Requests】[REQ VID] - Miley Cyrus &amp; Her Dead Petz Live - The Milky Milky Milk Tour (2015)]]></title>
                <link><![CDATA[https://sharemania.us/threads/miley-cyrus-her-dead-petz-live-the-milky-milky-milk-tour-2015.248778/]]></link>
                <description><![CDATA[<article>
<blockquote class="messageText SelectQuoteContainer ugc baseHtml">
thank you
<div class="messageTextEndMarker">&nbsp;</div>
</blockquote>
</article>]]></description>
                <author><![CDATA[JoaoPedroRCyrus]]></author>
                </item>

                
                <item>
                <title><![CDATA[【Instrumentals / Karaoke (lossy)】M4A - Hilary Duff | Breathe In. Breathe Out. (Instrumentals)]]></title>
                <link><![CDATA[https://sharemania.us/threads/hilary-duff-breathe-in-breathe-out-instrumentals.248780/]]></link>
                <description><![CDATA[<article>
<blockquote class="messageText SelectQuoteContainer ugc baseHtml">
Hey!! I was searching for the Go90 livestream of Miley's 2015 Tour. I had the file a few years ago but unfortunately I lost it. Does anyone here have it to share?? I saw that there is a thread posted here on the forum but the link is offline :/
<div class="messageTextEndMarker">&nbsp;</div>
</blockquote>
</article>]]></description>
                <author><![CDATA[bfosterbr]]></author>
                </item>

                </channel></rss>